<svg width="20" height="20" viewBox="0 0 20 20" fill="none" xmlns="http://www.w3.org/2000/svg">
<path d="M15.8334 14.1666H17.5001C18.0001 14.1666 18.3334 13.8333 18.3334 13.3333V10.8333C18.3334 10.0833 17.7501 9.41665 17.0834 9.24998C15.5834 8.83331 13.3334 8.33331 13.3334 8.33331C13.3334 8.33331 12.2501 7.16665 11.5001 6.41665C11.0834 6.08331 10.5834 5.83331 10.0001 5.83331H4.16675C3.66675 5.83331 3.25008 6.16665 3.00008 6.58331L1.83341 8.99998C1.72306 9.32183 1.66675 9.65973 1.66675 9.99998V13.3333C1.66675 13.8333 2.00008 14.1666 2.50008 14.1666H4.16675" stroke="#64748B" stroke-width="1.66667" stroke-linecap="round" stroke-linejoin="round"/>
<path d="M5.83341 15.8333C6.75389 15.8333 7.50008 15.0871 7.50008 14.1667C7.50008 13.2462 6.75389 12.5 5.83341 12.5C4.91294 12.5 4.16675 13.2462 4.16675 14.1667C4.16675 15.0871 4.91294 15.8333 5.83341 15.8333Z" stroke="#64748B" stroke-width="1.66667" stroke-linecap="round" stroke-linejoin="round"/>
<path d="M7.5 14.1667H12.5" stroke="#64748B" stroke-width="1.66667" stroke-linecap="round" stroke-linejoin="round"/>
<path d="M14.1667 15.8333C15.0871 15.8333 15.8333 15.0871 15.8333 14.1667C15.8333 13.2462 15.0871 12.5 14.1667 12.5C13.2462 12.5 12.5 13.2462 12.5 14.1667C12.5 15.0871 13.2462 15.8333 14.1667 15.8333Z" stroke="#64748B" stroke-width="1.66667" stroke-linecap="round" stroke-linejoin="round"/>
</svg>
