<svg width="14" height="14" viewBox="0 0 14 14" fill="none" xmlns="http://www.w3.org/2000/svg">
<path d="M0.75 5.41667H12.75M3.41667 0.75V2.08333M10.0833 0.75V2.08333M2.88333 12.75H10.6167C11.3634 12.75 11.7368 12.75 12.022 12.6047C12.2729 12.4769 12.4769 12.2729 12.6047 12.022C12.75 11.7368 12.75 11.3634 12.75 10.6167V4.21667C12.75 3.46993 12.75 3.09656 12.6047 2.81135C12.4769 2.56046 12.2729 2.35649 12.022 2.22866C11.7368 2.08333 11.3634 2.08333 10.6167 2.08333H2.88333C2.1366 2.08333 1.76323 2.08333 1.47801 2.22866C1.22713 2.35649 1.02315 2.56046 0.895327 2.81135C0.75 3.09656 0.75 3.46993 0.75 4.21667V10.6167C0.75 11.3634 0.75 11.7368 0.895327 12.022C1.02315 12.2729 1.22713 12.4769 1.47801 12.6047C1.76323 12.75 2.13659 12.75 2.88333 12.75Z" stroke="#2563EB" stroke-width="1.5" stroke-linecap="round" stroke-linejoin="round"/>
</svg>
