<svg width="20" height="20" viewBox="0 0 20 20" fill="none" xmlns="http://www.w3.org/2000/svg">
<path d="M2.5 18.3333H12.5" stroke="#64748B" stroke-width="1.66667" stroke-linecap="round" stroke-linejoin="round"/>
<path d="M3.33337 7.5H11.6667" stroke="#64748B" stroke-width="1.66667" stroke-linecap="round" stroke-linejoin="round"/>
<path d="M11.6667 18.3334V3.33335C11.6667 2.89133 11.4911 2.4674 11.1786 2.15484C10.866 1.84228 10.4421 1.66669 10 1.66669H5.00004C4.55801 1.66669 4.13409 1.84228 3.82153 2.15484C3.50897 2.4674 3.33337 2.89133 3.33337 3.33335V18.3334" stroke="#64748B" stroke-width="1.66667" stroke-linecap="round" stroke-linejoin="round"/>
<path d="M11.6666 10.8334H13.3333C13.7753 10.8334 14.1992 11.0089 14.5118 11.3215C14.8244 11.6341 15 12.058 15 12.5V14.1667C15 14.6087 15.1756 15.0326 15.4881 15.3452C15.8007 15.6578 16.2246 15.8334 16.6666 15.8334C17.1087 15.8334 17.5326 15.6578 17.8451 15.3452C18.1577 15.0326 18.3333 14.6087 18.3333 14.1667V8.19169C18.3335 7.97176 18.2901 7.75397 18.2057 7.55088C18.1213 7.34779 17.9976 7.1634 17.8416 7.00835L15 4.16669" stroke="#64748B" stroke-width="1.66667" stroke-linecap="round" stroke-linejoin="round"/>
</svg>
