<svg width="38" height="38" viewBox="0 0 38 38" fill="none" xmlns="http://www.w3.org/2000/svg">
<circle cx="19" cy="19" r="19" fill="#EEF4FF"/>
<path d="M26.2973 23.5L20.2973 13C20.1665 12.7692 19.9768 12.5771 19.7475 12.4436C19.5183 12.31 19.2577 12.2396 18.9923 12.2396C18.727 12.2396 18.4664 12.31 18.2371 12.4436C18.0079 12.5771 17.8182 12.7692 17.6873 13L11.6873 23.5C11.5551 23.729 11.4857 23.9889 11.4863 24.2534C11.4869 24.5178 11.5574 24.7774 11.6907 25.0059C11.8239 25.2343 12.0152 25.4234 12.2451 25.5541C12.475 25.6848 12.7354 25.7524 12.9998 25.75H24.9998C25.263 25.7497 25.5215 25.6802 25.7493 25.5485C25.9771 25.4167 26.1662 25.2273 26.2977 24.9993C26.4292 24.7714 26.4984 24.5128 26.4983 24.2496C26.4982 23.9864 26.4289 23.7279 26.2973 23.5Z" stroke="#2563EB" stroke-width="2" stroke-linecap="round" stroke-linejoin="round"/>
<path d="M19 16.75V19.75" stroke="#2563EB" stroke-width="2" stroke-linecap="round" stroke-linejoin="round"/>
<path d="M19 22.75H19.0075" stroke="#2563EB" stroke-width="2" stroke-linecap="round" stroke-linejoin="round"/>
</svg>
