<svg width="19" height="19" viewBox="0 0 19 19" fill="none" xmlns="http://www.w3.org/2000/svg">
<path d="M15.0418 13.4583H16.6252C17.1002 13.4583 17.4168 13.1417 17.4168 12.6667V10.2917C17.4168 9.57916 16.8627 8.94582 16.2293 8.78749C14.8043 8.39166 12.6668 7.91666 12.6668 7.91666C12.6668 7.91666 11.6377 6.80832 10.9252 6.09582C10.5293 5.77916 10.0543 5.54166 9.50016 5.54166H3.9585C3.4835 5.54166 3.08766 5.85832 2.85016 6.25416L1.74183 8.54999C1.637 8.85575 1.5835 9.17676 1.5835 9.49999V12.6667C1.5835 13.1417 1.90016 13.4583 2.37516 13.4583H3.9585" stroke="#6B6B6B" stroke-width="1.6" stroke-linecap="round" stroke-linejoin="round"/>
<path d="M5.54183 15.0417C6.41628 15.0417 7.12516 14.3328 7.12516 13.4583C7.12516 12.5839 6.41628 11.875 5.54183 11.875C4.66738 11.875 3.9585 12.5839 3.9585 13.4583C3.9585 14.3328 4.66738 15.0417 5.54183 15.0417Z" stroke="#6B6B6B" stroke-width="1.6" stroke-linecap="round" stroke-linejoin="round"/>
<path d="M7.125 13.4583H11.875" stroke="#6B6B6B" stroke-width="1.6" stroke-linecap="round" stroke-linejoin="round"/>
<path d="M13.4583 15.0417C14.3328 15.0417 15.0417 14.3328 15.0417 13.4583C15.0417 12.5839 14.3328 11.875 13.4583 11.875C12.5839 11.875 11.875 12.5839 11.875 13.4583C11.875 14.3328 12.5839 15.0417 13.4583 15.0417Z" stroke="#6B6B6B" stroke-width="1.6" stroke-linecap="round" stroke-linejoin="round"/>
</svg>
