<svg width="21" height="13" viewBox="0 0 21 13" fill="none" xmlns="http://www.w3.org/2000/svg">
<path d="M17.4196 5.50541C17.4196 5.50541 17.8118 0.590711 12.9721 0.0302439C8.82449 -0.363789 7.56156 3.22261 7.56156 3.22261C7.56156 3.22261 6.31267 2.10508 4.61805 3.01798C3.10066 3.88928 3.36916 5.48461 3.36916 5.48461C3.36916 5.48461 0 6.09398 0 9.28911C0.0749 12.4803 3.65773 12.5124 3.65773 12.5124H9.30766V9.13958H7.49501L10.5161 6.32895L13.5372 9.13958H11.7245V12.5124H16.8401C16.8401 12.5124 20.1755 12.5157 20.6436 9.47968C20.8667 6.15975 17.4196 5.50541 17.4196 5.50541Z" fill="#BEC4D5"/>
</svg>
