<svg width="11" height="10" viewBox="0 0 11 10" fill="none" xmlns="http://www.w3.org/2000/svg">
<path d="M10.5 9.5V8.5C10.5 7.5681 9.8626 6.78505 9 6.563M7.25 0.64538C7.98295 0.942075 8.5 1.66066 8.5 2.5C8.5 3.33934 7.98295 4.05795 7.25 4.3546M8 9.5C8 8.5681 8 8.1022 7.84775 7.73465C7.64475 7.2446 7.2554 6.85525 6.76535 6.65225C6.3978 6.5 5.9319 6.5 5 6.5H3.5C2.56811 6.5 2.10218 6.5 1.73464 6.65225C1.24458 6.85525 0.85523 7.2446 0.65224 7.73465C0.5 8.1022 0.5 8.5681 0.5 9.5M6.25 2.5C6.25 3.60457 5.35455 4.5 4.25 4.5C3.14543 4.5 2.25 3.60457 2.25 2.5C2.25 1.39543 3.14543 0.5 4.25 0.5C5.35455 0.5 6.25 1.39543 6.25 2.5Z" stroke="#4A5565" stroke-linecap="round" stroke-linejoin="round"/>
</svg>
